<?xml version="1.0" encoding="utf-8"?>
<svg xmlns="http://www.w3.org/2000/svg" viewBox="0 0 500 500">
  <path fill="currentColor" d="M 355.644 302.018 C 282.968 350.871 210.957 399.284 137.043 448.959 C 247.733 464.725 356.449 480.203 467.318 495.992 C 429.552 430.388 392.753 366.473 355.644 302.018 Z M 498.571 85.842 C 488.812 101.121 479.035 116.394 469.293 131.685 C 435.824 184.205 402.366 236.719 368.936 289.257 C 367.074 292.19 364.661 294.514 367.282 299.02 C 399.593 354.662 431.639 410.479 463.763 466.232 C 468.832 475.04 473.962 483.812 480.52 492.261 L 500 86.282 L 498.571 85.842 Z M 57.578 259.332 C 59.091 260.828 62.866 261.691 64.615 260.793 C 95.603 244.904 126.789 229.373 157.102 212.175 C 166.98 206.577 174.574 196.526 183.096 188.382 C 211.294 161.409 239.442 134.378 267.59 107.34 C 269.316 105.68 271.347 104.078 272.382 101.983 C 282.49 81.371 292.419 60.664 302.707 39.348 C 290.439 34.554 278.812 29.842 267.044 25.559 C 265.446 24.978 262.938 26.134 261.194 27.143 C 233.952 43.021 206.198 58.047 179.816 75.362 C 166.614 84.023 155.859 96.785 144.17 107.909 C 125.343 125.841 106.527 143.813 87.965 162.061 C 83.037 166.901 78.548 172.434 74.718 178.255 C 62.016 197.536 49.709 217.092 36.822 237.212 C 44.033 244.992 50.575 252.42 57.578 259.332 Z M 170.827 232.97 C 155.42 300.898 140.086 368.439 124.258 438.203 C 198.503 388.306 271.032 339.559 343.078 291.134 C 285.742 271.771 228.585 252.473 170.827 232.97 Z M 293.662 118.899 L 356.775 279.035 C 397.973 214.487 438.349 151.212 479.643 86.493 C 416.918 97.424 355.689 108.091 293.662 118.899 Z M 173.415 219.075 C 229.902 238.209 285.269 256.956 342.234 276.242 C 321.078 222.478 300.648 170.598 279.79 117.614 L 173.415 219.075 Z M 59.913 298.944 L 0.827 446.271 C 38.689 445.104 75.398 443.971 113.356 442.803 C 95.536 394.831 78.065 347.797 59.913 298.944 Z M 114.695 408.637 L 116.09 408.32 C 129.596 349.715 143.304 291.516 157.102 230.628 C 126.333 247.304 96.982 263.217 66.82 279.569 C 82.205 321.299 98.619 365.305 114.695 408.637 Z M 456.935 76.993 C 438.963 72.03 421.007 67.042 403.018 62.113 C 377.183 55.031 351.324 48.026 325.5 40.873 C 322.276 39.981 319.936 39.4 318.041 43.455 C 308.917 62.958 299.501 82.321 290.23 101.749 C 289.944 102.353 290 103.139 289.78 104.635 C 345.738 95.793 401.325 87.003 456.901 78.22 L 456.935 76.993 Z M 352.691 32.623 C 400.948 46.553 449.206 60.476 499.151 74.887 L 474.952 2.963 C 433.945 12.451 393.428 21.821 352.91 31.192 L 352.691 32.623 Z M 397.028 498.257 L 276.871 481.148 C 226.96 474.042 177.139 466.221 127.115 460.207 C 108.974 458.03 90.35 460.036 71.956 460.359 C 56.841 460.629 41.727 461.227 26.618 461.726 C 25.06 461.773 23.507 462.102 21.96 463.844 C 146.893 475.896 271.837 487.942 396.763 500 L 397.028 498.257 Z M 3.291 401.303 C 19.401 362.336 35.421 323.341 51.587 284.41 C 53.207 280.496 53.089 277.85 49.922 274.711 C 43.155 267.993 36.878 260.758 29.481 252.743 L 0 404.541 L 1.086 405.081 C 1.834 403.826 2.739 402.652 3.291 401.303 Z M 320.611 22.338 C 347.764 15.027 375.309 9.323 402.692 2.945 C 404.458 2.529 406.191 1.919 407.935 1.396 L 407.67 0 L 290.017 16.505 C 301.07 21.545 309.581 25.307 320.611 22.338 Z"/>
</svg>