<?xml version="1.0" encoding="utf-8"?>
<svg xmlns="http://www.w3.org/2000/svg" viewBox="0 0 500 500">
  <title>Vite</title>
  <path fill="#ffdd35" d="M 172.654 220.37 L 183.32 40.019 C 183.487 37.123 185.612 34.706 188.466 34.144 L 362.046 0.124 C 366.734 -0.793 370.713 3.561 369.4 8.144 L 336.942 120.705 C 335.63 125.288 339.609 129.621 344.276 128.725 L 394.025 119.142 C 398.837 118.205 402.879 122.83 401.275 127.476 C 401.191 127.746 401.066 128.017 400.941 128.267 L 259.485 410.554 L 256.923 414.512 C 255.798 416.345 253.819 417.45 251.673 417.429 C 247.986 417.429 244.382 414.262 245.319 409.741 L 268.131 299.306 C 269.11 294.577 264.673 290.514 260.048 291.91 L 230.194 300.972 C 225.569 302.389 221.132 298.327 222.09 293.598 L 236.465 223.286 C 237.423 218.724 233.298 214.724 228.757 215.786 L 180.424 226.953 C 176.279 227.911 172.383 224.62 172.633 220.37 L 172.654 220.37 Z"/>
  <path fill="currentColor" d="M 484.304 55.272 L 359.765 77.938 L 348.432 117.25 L 391.702 108.917 C 398.576 107.542 405.556 110.625 409.201 116.604 C 412.264 121.541 412.535 127.729 409.91 132.916 L 268.433 415.224 L 268.162 415.744 L 267.85 416.224 L 265.308 420.182 C 262.246 424.973 256.975 427.869 251.308 427.89 C 246.183 427.869 241.35 425.557 238.1 421.598 C 234.934 417.682 233.725 412.557 234.767 407.64 L 258.255 301.509 C 230.483 311.162 219.267 310.767 214.955 305.496 C 211.767 301.601 210.496 296.476 211.517 291.538 L 224.642 227.373 L 182.414 237.123 C 176.601 238.456 170.518 236.602 166.414 232.268 C 163.268 228.894 161.622 224.373 161.893 219.769 L 169.997 82.896 L 15 55.188 C 5.333 53.438 -2.583 62.813 0.729 72.042 C 0.979 72.75 1.292 73.417 1.667 74.063 L 240.933 493.576 C 245.788 502.118 258.058 502.18 263.016 493.722 C 263.058 493.639 263.1 493.576 263.141 493.493 L 497.72 74.021 C 502.49 65.459 496.2 54.917 486.39 55.063 C 485.679 55.084 484.992 55.147 484.304 55.272 Z"/>
</svg>