<svg version="1.1" id="Layer_1" xmlns="http://www.w3.org/2000/svg" xmlns:xlink="http://www.w3.org/1999/xlink" x="0px" y="0px"
	 width="100%" viewBox="0 0 512 512" enable-background="new 0 0 512 512" xml:space="preserve">
<path fill="#FFFFFF" opacity="1.000000" stroke="none" 
	d="
M292.000000,513.000000 
	C194.690292,513.000000 97.880577,513.000000 1.035435,513.000000 
	C1.035435,342.398590 1.035435,171.797195 1.035435,1.097890 
	C171.559723,1.097890 342.119537,1.097890 512.839661,1.097890 
	C512.839661,171.666550 512.839661,342.333252 512.839661,513.000000 
	C439.463837,513.000000 365.981903,513.000000 292.000000,513.000000 
M347.959290,346.524719 
	C337.356476,352.444855 326.691254,358.256409 316.165100,364.309906 
	C299.314362,374.000580 282.590424,383.911865 265.727692,393.581329 
	C262.574615,395.389343 260.907562,397.384155 260.925659,401.267090 
	C261.061707,430.423279 260.998657,459.580322 261.000641,488.737122 
	C261.001099,495.400330 264.125458,497.251617 269.997040,493.986267 
	C276.510010,490.364197 283.009094,486.714569 289.452789,482.971100 
	C310.599152,470.686035 331.695221,458.314270 352.855774,446.053772 
	C364.202545,439.479431 375.673737,433.120087 387.030975,426.563507 
	C401.331970,418.307434 415.575043,409.950867 429.840881,401.633881 
	C439.487732,396.009766 449.209839,390.508759 458.740814,384.694550 
	C463.256226,381.939972 463.241699,378.780151 458.706970,376.008057 
	C449.049713,370.104614 439.207825,364.503052 429.438080,358.783752 
	C414.900696,350.273376 400.448822,341.609894 385.750549,333.386963 
	C382.601715,331.625366 377.713348,329.664917 375.075073,330.897339 
	C365.872345,335.196259 357.304779,340.855011 347.959290,346.524719 
M166.041351,346.518585 
	C158.184067,341.956543 150.026123,337.829590 142.574753,332.680206 
	C137.573822,329.224274 133.673279,330.071686 129.224289,332.923584 
	C126.490944,334.675720 123.568176,336.130035 120.755615,337.761414 
	C106.850708,345.826965 92.950531,353.900696 79.056076,361.984222 
	C71.058960,366.636810 62.989822,371.174225 55.120937,376.035156 
	C50.855202,378.670258 50.952801,381.720612 55.079601,384.558258 
	C57.064510,385.923126 59.308491,386.905792 61.399899,388.122131 
	C80.217033,399.066376 99.007103,410.057281 117.845169,420.965332 
	C129.093842,427.478790 140.438095,433.827087 151.696365,440.324188 
	C166.037323,448.600342 180.340652,456.941772 194.649170,465.274017 
	C206.713928,472.299652 218.755173,479.365601 230.822876,486.386108 
	C235.452789,489.079620 240.038925,491.869507 244.804459,494.303253 
	C250.355270,497.137939 252.996231,495.422913 252.997574,489.295776 
	C253.003967,459.981384 252.970245,430.666931 253.045074,401.352753 
	C253.052948,398.268555 252.491913,396.067200 249.359161,394.619293 
	C245.994217,393.064026 242.948776,390.827362 239.724991,388.955048 
	C227.641220,381.936829 215.557205,374.918823 203.443481,367.952545 
	C191.204147,360.914032 178.929489,353.936951 166.041351,346.518585 
M62.328056,138.082581 
	C71.353081,143.360580 80.362114,148.666153 89.406807,153.910248 
	C103.682915,162.187500 117.912041,170.551819 132.352859,178.532211 
	C134.410492,179.669312 138.107712,179.882706 140.089432,178.789474 
	C155.395035,170.345840 170.475464,161.493149 185.605438,152.732269 
	C206.381699,140.701950 227.110519,128.589233 247.935211,116.643509 
	C251.440399,114.632812 253.118729,112.312088 253.091537,108.038185 
	C252.913544,80.063232 252.710587,52.081852 253.170105,24.113319 
	C253.314453,15.327669 250.346375,12.262187 242.162064,17.366472 
	C241.057419,18.055420 239.763199,18.435036 238.634125,19.091051 
	C217.586273,31.320427 196.571823,43.607437 175.503860,55.802021 
	C161.654327,63.818420 147.707047,71.665825 133.847275,79.664658 
	C117.580009,89.052910 101.373459,98.546288 85.114716,107.949356 
	C75.361549,113.589996 65.478104,119.010017 55.811321,124.793457 
	C50.661503,127.874481 50.777859,130.954285 55.740738,134.329559 
	C57.632153,135.615906 59.646034,136.722183 62.328056,138.082581 
M348.671112,61.917202 
	C341.225403,57.510883 333.820190,53.034336 326.326019,48.712063 
	C307.501434,37.854988 288.673340,27.002430 269.732330,16.351387 
	C267.800232,15.264925 264.847382,14.822736 262.842865,15.495624 
	C261.723480,15.871387 261.082550,19.159193 261.075195,21.137920 
	C260.966431,50.454224 260.915192,79.771774 261.163116,109.086380 
	C261.182678,111.399529 262.924072,114.696510 264.864899,115.840889 
	C284.702698,127.538071 304.751648,138.876968 324.733337,150.330353 
	C340.317963,159.263351 356.107483,167.869141 371.342651,177.363770 
	C376.174774,180.375153 379.662323,180.084534 383.957672,177.584564 
	C397.369232,169.778839 410.816223,162.033997 424.242096,154.252884 
	C435.400116,147.786087 446.642303,141.456909 457.661255,134.760818 
	C463.407715,131.268753 463.329865,128.344498 457.403564,124.830750 
	C442.516174,116.003922 427.451965,107.475815 412.482544,98.786774 
	C391.442535,86.574066 370.424194,74.324150 348.671112,61.917202 
M469.725311,367.687042 
	C469.816864,366.531738 469.988373,365.376465 469.988586,364.221161 
	C470.001312,291.604523 470.000031,218.987885 469.999847,146.371246 
	C469.999847,145.705048 470.022705,145.037643 469.991730,144.372833 
	C469.815155,140.587051 467.409210,139.570801 464.207794,140.114838 
	C462.651611,140.379288 461.148682,141.262115 459.745819,142.078369 
	C435.214020,156.352219 410.778076,170.794128 386.096069,184.802582 
	C382.685181,186.738464 381.940765,188.636322 381.947540,192.065109 
	C382.028748,233.203262 382.155182,274.342865 381.830170,315.478638 
	C381.782257,321.544067 383.986725,324.427765 388.981354,327.137329 
	C401.444031,333.898224 413.568298,341.281250 425.855743,348.367157 
	C437.730225,355.214905 449.552795,362.163574 461.621826,368.651825 
	C463.516541,369.670441 466.597656,368.482239 469.725311,367.687042 
M43.999981,349.498993 
	C43.999977,353.996155 43.995312,358.493286 44.001038,362.990448 
	C44.010139,370.136749 46.718258,371.886902 53.163288,368.304657 
	C67.229355,360.486664 81.169220,352.439362 95.100632,344.381958 
	C106.501221,337.788269 117.867592,331.130463 129.101227,324.259277 
	C130.526764,323.387329 131.874435,321.052307 131.880295,319.390259 
	C132.031555,276.418701 132.032333,233.446320 131.875824,190.474777 
	C131.869843,188.833542 130.434357,186.563721 128.993195,185.669601 
	C122.227890,181.472214 115.209312,177.685120 108.314445,173.694046 
	C90.026878,163.108337 71.787514,152.438919 53.463139,141.917465 
	C46.668911,138.016373 44.000481,139.725708 44.000393,147.629654 
	C43.999664,214.586227 43.999981,281.542786 43.999981,349.498993 
M283.663757,245.132202 
	C287.131500,243.209946 290.630798,241.342117 294.061646,239.356155 
	C309.926636,230.172577 325.773895,220.958298 341.625000,211.750702 
	C351.907959,205.777542 362.220551,199.854263 372.450256,193.791183 
	C376.472473,191.407257 377.456085,186.462143 374.137512,185.021423 
	C372.145599,184.156677 368.871063,184.618454 366.848877,185.722260 
	C355.843536,191.729507 345.021820,198.076309 334.186188,204.390747 
	C309.216431,218.941833 284.293762,233.574020 259.264374,248.021561 
	C258.067627,248.712357 255.741653,248.478897 254.430176,247.770813 
	C246.151443,243.300964 237.990585,238.610611 229.829071,233.926376 
	C215.350113,225.616272 200.915909,217.228165 186.430191,208.929916 
	C173.252609,201.381027 160.024841,193.919785 146.834335,186.393387 
	C143.664581,184.584793 140.875305,184.174393 138.982635,188.088394 
	C137.170959,191.834885 139.740570,193.565186 142.358841,195.116913 
	C147.051819,197.898270 151.822525,200.548355 156.557632,203.258774 
	C186.667267,220.493912 216.717972,237.833801 246.954971,254.842545 
	C250.959686,257.095245 252.103973,259.543365 252.084244,263.859283 
	C251.930420,297.511353 251.999100,331.164459 251.999191,364.817230 
	C251.999207,370.981354 252.072067,377.146637 251.972855,383.309174 
	C251.914734,386.919403 253.155121,389.048828 257.101440,389.010193 
	C261.140320,388.970642 262.184082,386.599640 262.010620,383.106323 
	C261.944580,381.776825 262.000000,380.441315 262.000000,379.108521 
	C262.000000,340.291199 261.949463,301.473663 262.131012,262.657196 
	C262.141449,260.430573 263.446014,257.343964 265.177399,256.150269 
	C270.868774,252.226440 277.034485,248.990616 283.663757,245.132202 
z"/>
<path fill="#CF3034" opacity="1.000000" stroke="none" 
	d="
M348.227570,346.260834 
	C357.304779,340.855011 365.872345,335.196259 375.075073,330.897339 
	C377.713348,329.664917 382.601715,331.625366 385.750549,333.386963 
	C400.448822,341.609894 414.900696,350.273376 429.438080,358.783752 
	C439.207825,364.503052 449.049713,370.104614 458.706970,376.008057 
	C463.241699,378.780151 463.256226,381.939972 458.740814,384.694550 
	C449.209839,390.508759 439.487732,396.009766 429.840881,401.633881 
	C415.575043,409.950867 401.331970,418.307434 387.030975,426.563507 
	C375.673737,433.120087 364.202545,439.479431 352.855774,446.053772 
	C331.695221,458.314270 310.599152,470.686035 289.452789,482.971100 
	C283.009094,486.714569 276.510010,490.364197 269.997040,493.986267 
	C264.125458,497.251617 261.001099,495.400330 261.000641,488.737122 
	C260.998657,459.580322 261.061707,430.423279 260.925659,401.267090 
	C260.907562,397.384155 262.574615,395.389343 265.727692,393.581329 
	C282.590424,383.911865 299.314362,374.000580 316.165100,364.309906 
	C326.691254,358.256409 337.356476,352.444855 348.227570,346.260834 
z"/>
<path fill="#A8297A" opacity="1.000000" stroke="none" 
	d="
M166.355835,346.725769 
	C178.929489,353.936951 191.204147,360.914032 203.443481,367.952545 
	C215.557205,374.918823 227.641220,381.936829 239.724991,388.955048 
	C242.948776,390.827362 245.994217,393.064026 249.359161,394.619293 
	C252.491913,396.067200 253.052948,398.268555 253.045074,401.352753 
	C252.970245,430.666931 253.003967,459.981384 252.997574,489.295776 
	C252.996231,495.422913 250.355270,497.137939 244.804459,494.303253 
	C240.038925,491.869507 235.452789,489.079620 230.822876,486.386108 
	C218.755173,479.365601 206.713928,472.299652 194.649170,465.274017 
	C180.340652,456.941772 166.037323,448.600342 151.696365,440.324188 
	C140.438095,433.827087 129.093842,427.478790 117.845169,420.965332 
	C99.007103,410.057281 80.217033,399.066376 61.399899,388.122131 
	C59.308491,386.905792 57.064510,385.923126 55.079601,384.558258 
	C50.952801,381.720612 50.855202,378.670258 55.120937,376.035156 
	C62.989822,371.174225 71.058960,366.636810 79.056076,361.984222 
	C92.950531,353.900696 106.850708,345.826965 120.755615,337.761414 
	C123.568176,336.130035 126.490944,334.675720 129.224289,332.923584 
	C133.673279,330.071686 137.573822,329.224274 142.574753,332.680206 
	C150.026123,337.829590 158.184067,341.956543 166.355835,346.725769 
z"/>
<path fill="#8FC74A" opacity="1.000000" stroke="none" 
	d="
M61.966080,137.996552 
	C59.646034,136.722183 57.632153,135.615906 55.740738,134.329559 
	C50.777859,130.954285 50.661503,127.874481 55.811321,124.793457 
	C65.478104,119.010017 75.361549,113.589996 85.114716,107.949356 
	C101.373459,98.546288 117.580009,89.052910 133.847275,79.664658 
	C147.707047,71.665825 161.654327,63.818420 175.503860,55.802021 
	C196.571823,43.607437 217.586273,31.320427 238.634125,19.091051 
	C239.763199,18.435036 241.057419,18.055420 242.162064,17.366472 
	C250.346375,12.262187 253.314453,15.327669 253.170105,24.113319 
	C252.710587,52.081852 252.913544,80.063232 253.091537,108.038185 
	C253.118729,112.312088 251.440399,114.632812 247.935211,116.643509 
	C227.110519,128.589233 206.381699,140.701950 185.605438,152.732269 
	C170.475464,161.493149 155.395035,170.345840 140.089432,178.789474 
	C138.107712,179.882706 134.410492,179.669312 132.352859,178.532211 
	C117.912041,170.551819 103.682915,162.187500 89.406807,153.910248 
	C80.362114,148.666153 71.353081,143.360580 61.966080,137.996552 
z"/>
<path fill="#FFCC29" opacity="1.000000" stroke="none" 
	d="
M349.033844,62.003670 
	C370.424194,74.324150 391.442535,86.574066 412.482544,98.786774 
	C427.451965,107.475815 442.516174,116.003922 457.403564,124.830750 
	C463.329865,128.344498 463.407715,131.268753 457.661255,134.760818 
	C446.642303,141.456909 435.400116,147.786087 424.242096,154.252884 
	C410.816223,162.033997 397.369232,169.778839 383.957672,177.584564 
	C379.662323,180.084534 376.174774,180.375153 371.342651,177.363770 
	C356.107483,167.869141 340.317963,159.263351 324.733337,150.330353 
	C304.751648,138.876968 284.702698,127.538071 264.864899,115.840889 
	C262.924072,114.696510 261.182678,111.399529 261.163116,109.086380 
	C260.915192,79.771774 260.966431,50.454224 261.075195,21.137920 
	C261.082550,19.159193 261.723480,15.871387 262.842865,15.495624 
	C264.847382,14.822736 267.800232,15.264925 269.732330,16.351387 
	C288.673340,27.002430 307.501434,37.854988 326.326019,48.712063 
	C333.820190,53.034336 341.225403,57.510883 349.033844,62.003670 
z"/>
<path fill="#F58634" opacity="1.000000" stroke="none" 
	d="
M469.427734,368.000732 
	C466.597656,368.482239 463.516541,369.670441 461.621826,368.651825 
	C449.552795,362.163574 437.730225,355.214905 425.855743,348.367157 
	C413.568298,341.281250 401.444031,333.898224 388.981354,327.137329 
	C383.986725,324.427765 381.782257,321.544067 381.830170,315.478638 
	C382.155182,274.342865 382.028748,233.203262 381.947540,192.065109 
	C381.940765,188.636322 382.685181,186.738464 386.096069,184.802582 
	C410.778076,170.794128 435.214020,156.352219 459.745819,142.078369 
	C461.148682,141.262115 462.651611,140.379288 464.207794,140.114838 
	C467.409210,139.570801 469.815155,140.587051 469.991730,144.372833 
	C470.022705,145.037643 469.999847,145.705048 469.999847,146.371246 
	C470.000031,218.987885 470.001312,291.604523 469.988586,364.221161 
	C469.988373,365.376465 469.816864,366.531738 469.427734,368.000732 
z"/>
<path fill="#009EDF" opacity="1.000000" stroke="none" 
	d="
M43.999981,348.999176 
	C43.999981,281.542786 43.999664,214.586227 44.000393,147.629654 
	C44.000481,139.725708 46.668911,138.016373 53.463139,141.917465 
	C71.787514,152.438919 90.026878,163.108337 108.314445,173.694046 
	C115.209312,177.685120 122.227890,181.472214 128.993195,185.669601 
	C130.434357,186.563721 131.869843,188.833542 131.875824,190.474777 
	C132.032333,233.446320 132.031555,276.418701 131.880295,319.390259 
	C131.874435,321.052307 130.526764,323.387329 129.101227,324.259277 
	C117.867592,331.130463 106.501221,337.788269 95.100632,344.381958 
	C81.169220,352.439362 67.229355,360.486664 53.163288,368.304657 
	C46.718258,371.886902 44.010139,370.136749 44.001038,362.990448 
	C43.995312,358.493286 43.999977,353.996155 43.999981,348.999176 
z"/>
<path fill="#BDBEC1" opacity="1.000000" stroke="none" 
	d="
M283.340851,245.311325 
	C277.034485,248.990616 270.868774,252.226440 265.177399,256.150269 
	C263.446014,257.343964 262.141449,260.430573 262.131012,262.657196 
	C261.949463,301.473663 262.000000,340.291199 262.000000,379.108521 
	C262.000000,380.441315 261.944580,381.776825 262.010620,383.106323 
	C262.184082,386.599640 261.140320,388.970642 257.101440,389.010193 
	C253.155121,389.048828 251.914734,386.919403 251.972855,383.309174 
	C252.072067,377.146637 251.999207,370.981354 251.999191,364.817230 
	C251.999100,331.164459 251.930420,297.511353 252.084244,263.859283 
	C252.103973,259.543365 250.959686,257.095245 246.954971,254.842545 
	C216.717972,237.833801 186.667267,220.493912 156.557632,203.258774 
	C151.822525,200.548355 147.051819,197.898270 142.358841,195.116913 
	C139.740570,193.565186 137.170959,191.834885 138.982635,188.088394 
	C140.875305,184.174393 143.664581,184.584793 146.834335,186.393387 
	C160.024841,193.919785 173.252609,201.381027 186.430191,208.929916 
	C200.915909,217.228165 215.350113,225.616272 229.829071,233.926376 
	C237.990585,238.610611 246.151443,243.300964 254.430176,247.770813 
	C255.741653,248.478897 258.067627,248.712357 259.264374,248.021561 
	C284.293762,233.574020 309.216431,218.941833 334.186188,204.390747 
	C345.021820,198.076309 355.843536,191.729507 366.848877,185.722260 
	C368.871063,184.618454 372.145599,184.156677 374.137512,185.021423 
	C377.456085,186.462143 376.472473,191.407257 372.450256,193.791183 
	C362.220551,199.854263 351.907959,205.777542 341.625000,211.750702 
	C325.773895,220.958298 309.926636,230.172577 294.061646,239.356155 
	C290.630798,241.342117 287.131500,243.209946 283.340851,245.311325 
z"/>
</svg>