<svg version="1.1" id="Layer_1" xmlns="http://www.w3.org/2000/svg" xmlns:xlink="http://www.w3.org/1999/xlink" x="0px" y="0px"
	 width="100%" viewBox="0 0 60 94" enable-background="new 0 0 60 94" xml:space="preserve">
<path fill="#FDFDFD" opacity="1.000000" stroke="none" 
	d="
M32.000000,95.000000 
	C21.333334,95.000000 11.166667,95.000000 1.000000,95.000000 
	C1.000000,63.666668 1.000000,32.333332 1.000000,1.000000 
	C21.000000,1.000000 41.000000,1.000000 61.000000,1.000000 
	C61.000000,32.333332 61.000000,63.666668 61.000000,95.000000 
	C51.500000,95.000000 42.000000,95.000000 32.000000,95.000000 
M30.809633,37.176811 
	C35.873604,34.788849 42.704659,36.450523 46.463058,30.006220 
	C44.903698,29.241982 43.399784,27.911167 41.829540,27.827665 
	C26.973997,27.037703 14.910678,33.136578 5.247945,43.927731 
	C3.386049,46.007057 3.474810,49.919666 2.953368,53.035038 
	C2.856364,53.614586 4.039990,54.781536 4.828179,55.013878 
	C5.420037,55.188347 6.658623,54.497375 7.040897,53.853985 
	C12.312615,44.981316 21.035341,40.999298 30.809633,37.176811 
M18.955954,51.420937 
	C16.416794,54.420532 13.368210,57.134964 11.483917,60.501141 
	C9.654836,63.768684 11.608199,66.701912 14.847128,68.197968 
	C19.126961,70.174797 17.435049,65.738487 18.613506,64.379158 
	C19.904734,62.889740 20.695238,60.711704 22.265429,59.765854 
	C27.189108,56.799911 32.397846,54.310902 37.454109,51.559860 
	C40.165791,50.084465 42.791256,48.450603 45.757809,46.711060 
	C41.401508,42.649166 37.323822,42.505695 33.317413,44.196529 
	C28.608131,46.183998 24.125669,48.708908 18.955954,51.420937 
M41.386742,59.008541 
	C37.162182,56.928528 33.800411,59.527466 30.990294,61.736355 
	C28.501083,63.693001 25.174160,67.298409 25.566479,69.606674 
	C26.253387,73.648201 30.971149,72.874557 34.441734,72.763855 
	C34.743874,72.754211 35.039211,72.531303 35.332050,72.393822 
	C32.839966,68.899422 33.429279,67.395477 38.196335,65.059410 
	C40.584679,63.889015 43.724289,63.219223 41.386742,59.008541 
M13.683265,29.054810 
	C16.184162,27.758808 18.834650,26.673735 21.110163,25.059933 
	C21.984379,24.439936 22.004049,22.615009 22.413097,21.339111 
	C21.337868,20.995161 19.833754,20.015707 19.254484,20.406643 
	C14.087526,23.893707 8.947179,27.455173 4.122495,31.391258 
	C2.821977,32.452251 2.625679,34.866745 1.922515,36.659946 
	C2.266894,36.836479 2.611273,37.013012 2.955652,37.189545 
	C6.314641,34.592731 9.673629,31.995916 13.683265,29.054810 
z"/>
<path fill="#1B264C" opacity="1.000000" stroke="none" 
	d="
M30.432827,37.295097 
	C21.035341,40.999298 12.312615,44.981316 7.040897,53.853985 
	C6.658623,54.497375 5.420037,55.188347 4.828179,55.013878 
	C4.039990,54.781536 2.856364,53.614586 2.953368,53.035038 
	C3.474810,49.919666 3.386049,46.007057 5.247945,43.927731 
	C14.910678,33.136578 26.973997,27.037703 41.829540,27.827665 
	C43.399784,27.911167 44.903698,29.241982 46.463058,30.006220 
	C42.704659,36.450523 35.873604,34.788849 30.432827,37.295097 
z"/>
<path fill="#1A254B" opacity="1.000000" stroke="none" 
	d="
M19.250397,51.210838 
	C24.125669,48.708908 28.608131,46.183998 33.317413,44.196529 
	C37.323822,42.505695 41.401508,42.649166 45.757809,46.711060 
	C42.791256,48.450603 40.165791,50.084465 37.454109,51.559860 
	C32.397846,54.310902 27.189108,56.799911 22.265429,59.765854 
	C20.695238,60.711704 19.904734,62.889740 18.613506,64.379158 
	C17.435049,65.738487 19.126961,70.174797 14.847128,68.197968 
	C11.608199,66.701912 9.654836,63.768684 11.483917,60.501141 
	C13.368210,57.134964 16.416794,54.420532 19.250397,51.210838 
z"/>
<path fill="#1F2A4F" opacity="1.000000" stroke="none" 
	d="
M41.728172,59.163502 
	C43.724289,63.219223 40.584679,63.889015 38.196335,65.059410 
	C33.429279,67.395477 32.839966,68.899422 35.334877,72.400635 
	C35.039211,72.531303 34.743874,72.754211 34.441734,72.763855 
	C30.971149,72.874557 26.253387,73.648201 25.566479,69.606674 
	C25.174160,67.298409 28.501083,63.693001 30.990294,61.736355 
	C33.800411,59.527466 37.162182,56.928528 41.728172,59.163502 
z"/>
<path fill="#1B254C" opacity="1.000000" stroke="none" 
	d="
M13.357941,29.226955 
	C9.673629,31.995916 6.314641,34.592731 2.955652,37.189545 
	C2.611273,37.013012 2.266894,36.836479 1.922515,36.659946 
	C2.625679,34.866745 2.821977,32.452251 4.122495,31.391258 
	C8.947179,27.455173 14.087526,23.893707 19.254484,20.406643 
	C19.833754,20.015707 21.337868,20.995161 22.413097,21.339111 
	C22.004049,22.615009 21.984379,24.439936 21.110163,25.059933 
	C18.834650,26.673735 16.184162,27.758808 13.357941,29.226955 
z"/>
</svg>